<?xml version="1.0" encoding="iso-8859-1"?>
<!-- Generator: Adobe Illustrator 16.0.0, SVG Export Plug-In . SVG Version: 6.00 Build 0)  -->
<!DOCTYPE svg PUBLIC "-//W3C//DTD SVG 1.1//EN" "http://www.w3.org/Graphics/SVG/1.1/DTD/svg11.dtd">
<svg version="1.1" id="Capa_1" xmlns="http://www.w3.org/2000/svg" xmlns:xlink="http://www.w3.org/1999/xlink" x="0px" y="0px"
	 width="24.452px" height="24.452px" viewBox="0 0 24.452 24.452" style="enable-background:new 0 0 24.452 24.452;"
	 xml:space="preserve">
<g>
	<path d="M23.799,22.281l-0.72-4.043c-0.192-1.09-1.192-2.121-2.276-2.354l-5.034-1.062c0.849-0.938,1.513-2.143,1.967-3.352
		c0.663-0.24,1.33-0.832,1.523-1.6c0.256-1.023-0.015-1.936-0.648-2.33V6.076C18.61,2.555,15.925,0,12.226,0
		S5.842,2.555,5.842,6.076v1.465C5.208,7.934,4.937,8.848,5.193,9.869c0.193,0.772,0.865,1.367,1.53,1.604
		c0.449,1.209,1.106,2.41,1.952,3.351l-5.027,1.059c-1.082,0.23-2.082,1.262-2.275,2.352l-0.721,4.043
		c-0.101,0.572,0.035,1.115,0.383,1.529c0.348,0.416,0.858,0.646,1.438,0.646h19.506c0.58,0,1.092-0.229,1.438-0.646
		C23.766,23.395,23.9,22.852,23.799,22.281z M22.728,23.232c-0.174,0.207-0.439,0.322-0.749,0.322h-3.757v-0.896h4.688
		C22.906,22.873,22.857,23.078,22.728,23.232z M2.473,23.555c-0.309,0-0.574-0.113-0.748-0.322c-0.13-0.154-0.178-0.356-0.183-0.574
		h4.688v0.896H2.473z M7.128,23.555v-2.334c0-0.25-0.202-0.451-0.45-0.451s-0.45,0.201-0.45,0.451v0.537h-4.57l0.599-3.361
		c0.13-0.729,0.852-1.476,1.576-1.629l3.768-0.793c1.236,1.217,2.91,1.916,4.652,1.916c1.762,0,3.398-0.681,4.646-1.906l3.719,0.783
		c0.726,0.153,1.446,0.897,1.577,1.629l0.598,3.361h-4.569v-0.537c0-0.25-0.202-0.451-0.45-0.451s-0.449,0.201-0.449,0.451v2.334
		H7.128z M12.226,16.602c1.036,0,1.954-0.396,2.748-1.023l0.833,0.177c-1.007,0.8-2.239,1.235-3.552,1.235
		c-1.298,0-2.552-0.45-3.559-1.246l0.775-0.163C10.265,16.208,11.184,16.602,12.226,16.602z M7.414,10.664
		C7.061,10.74,6.247,10.295,6.084,9.65c-0.165-0.656-0.008-1.271,0.35-1.371C6.541,8.248,6.65,8.271,6.761,8.33V6.08
		c0-3.182,2.446-5.154,5.464-5.154c3.02,0,5.465,1.973,5.465,5.154v2.252c0.109-0.061,0.221-0.084,0.326-0.053
		c0.356,0.1,0.516,0.715,0.351,1.371c-0.161,0.641-0.97,1.082-1.32,1.014c-0.423,1.285-1.223,2.893-2.35,3.936
		c-0.144,0.131-0.29,0.254-0.443,0.367c-0.18,0.131-0.368,0.244-0.562,0.344c-0.452,0.23-0.939,0.371-1.464,0.371
		c-0.532,0-1.023-0.139-1.477-0.369c-0.195-0.098-0.385-0.211-0.566-0.342c-0.153-0.113-0.3-0.236-0.443-0.367
		C8.622,13.57,7.836,11.978,7.414,10.664z"/>
</g>
<g>
</g>
<g>
</g>
<g>
</g>
<g>
</g>
<g>
</g>
<g>
</g>
<g>
</g>
<g>
</g>
<g>
</g>
<g>
</g>
<g>
</g>
<g>
</g>
<g>
</g>
<g>
</g>
<g>
</g>
</svg>
