<?xml version='1.0' encoding='iso-8859-1'?>
<svg version="1.1" xmlns="http://www.w3.org/2000/svg" viewBox="0 0 470 470" xmlns:xlink="http://www.w3.org/1999/xlink" enable-background="new 0 0 470 470">
  <g>
    <g>
      <path d="m326.347,118.097c-2.231-1.117-4.873-1.051-7.048,0.178-12.119,6.853-25.925,10.475-39.924,10.475-40.728,0-75.367-30.408-80.573-70.732-0.32-2.476-1.851-4.631-4.084-5.748-2.235-1.117-4.876-1.049-7.049,0.181-30.174,17.078-48.919,49.188-48.919,83.799 0,53.072 43.178,96.25 96.25,96.25s96.25-43.178 96.25-96.25c0-4.003-0.276-8.177-0.821-12.405-0.32-2.476-1.85-4.631-4.082-5.748zm-91.347,99.403c-44.802,0-81.25-36.449-81.25-81.25 0-25.626 12.177-49.63 32.364-64.874 10.72,41.976 48.949,72.374 93.261,72.374 12.686,0 25.242-2.514 36.875-7.332-0.089,44.726-36.503,81.082-81.25,81.082z"/>
      <path d="m106.25,307.393c4.143,0 7.5-3.358 7.5-7.5v-163.643c0-66.857 54.393-121.25 121.25-121.25s121.25,54.393 121.25,121.25v163.643c0,4.142 3.357,7.5 7.5,7.5s7.5-3.358 7.5-7.5v-163.643c0-75.128-61.121-136.25-136.25-136.25s-136.25,61.122-136.25,136.25v163.643c0,4.142 3.357,7.5 7.5,7.5z"/>
      <path d="m357.95,324.396c-0.394-0.443-0.831-0.823-1.296-1.15-32.547-28.469-75.118-45.746-121.654-45.746-46.535,0-89.106,17.277-121.653,45.745-0.465,0.328-0.903,0.707-1.297,1.151-38.045,33.908-62.05,83.252-62.05,138.104 0,4.142 3.357,7.5 7.5,7.5s7.5-3.358 7.5-7.5c0-48.389 20.323-92.119 52.88-123.108 33.01,27.035 74.329,41.858 117.12,41.858s84.109-14.823 117.12-41.858c32.557,30.989 52.88,74.719 52.88,123.108 0,4.142 3.357,7.5 7.5,7.5s7.5-3.358 7.5-7.5c0-54.852-24.005-104.196-62.05-138.104zm-122.95,41.854c-38.461,0-75.63-13.033-105.625-36.854 29.028-23.084 65.742-36.896 105.625-36.896s76.597,13.812 105.625,36.896c-29.995,23.821-67.164,36.854-105.625,36.854z"/>
    </g>
  </g>
</svg>
